<svg width="8" height="9" viewBox="0 0 8 9" fill="none" xmlns="http://www.w3.org/2000/svg">
<path d="M7.8693 7.74113L6.3621 6.23364C6.84888 5.61229 7.11237 4.84513 7.11014 4.05575C7.11014 3.35249 6.90164 2.66502 6.511 2.08028C6.12037 1.49554 5.56514 1.03979 4.91554 0.770667C4.26593 0.501541 3.55113 0.431125 2.86151 0.568324C2.1719 0.705524 1.53844 1.04418 1.04126 1.54146C0.544072 2.03874 0.205484 2.67231 0.0683113 3.36206C-0.0688619 4.0518 0.00154036 4.76675 0.270615 5.41647C0.53969 6.0662 0.995352 6.62153 1.57998 7.01224C2.16461 7.40295 2.85195 7.61149 3.55507 7.61149C4.3443 7.61372 5.11131 7.35018 5.73255 6.86331L7.23975 8.37079C7.32361 8.45358 7.4367 8.5 7.55453 8.5C7.67235 8.5 7.78544 8.45358 7.8693 8.37079C7.91073 8.3295 7.9436 8.28044 7.96603 8.22641C7.98845 8.17238 8 8.11446 8 8.05596C8 7.99746 7.98845 7.93954 7.96603 7.88552C7.9436 7.83149 7.91073 7.78242 7.8693 7.74113ZM0.888769 4.05575C0.888769 3.5283 1.04515 3.0127 1.33812 2.57415C1.6311 2.13559 2.04752 1.79378 2.53472 1.59194C3.02192 1.39009 3.55803 1.33728 4.07524 1.44018C4.59245 1.54308 5.06754 1.79707 5.44043 2.17003C5.81332 2.54299 6.06726 3.01817 6.17014 3.53548C6.27302 4.05279 6.22022 4.589 6.01841 5.07629C5.81661 5.56359 5.47486 5.98009 5.03639 6.27312C4.59792 6.56615 4.08242 6.72256 3.55507 6.72256C2.84823 6.72158 2.17061 6.4403 1.67079 5.94038C1.17098 5.44047 0.889749 4.76273 0.888769 4.05575Z" fill="#141516"/>
</svg>
