<svg width="15" height="15" viewBox="0 0 15 15" fill="none" xmlns="http://www.w3.org/2000/svg">
<path d="M9 4.5H1.5C0.67275 4.5 0 5.17275 0 6V13.5C0 14.3273 0.67275 15 1.5 15H9C9.82725 15 10.5 14.3273 10.5 13.5V6C10.5 5.17275 9.82725 4.5 9 4.5Z" fill="#A5A6F6"/>
<path d="M13.5 0H6C5.60218 0 5.22064 0.158035 4.93934 0.43934C4.65804 0.720644 4.5 1.10218 4.5 1.5V3H10.5C10.8978 3 11.2794 3.15804 11.5607 3.43934C11.842 3.72064 12 4.10218 12 4.5V10.5H13.5C13.8978 10.5 14.2794 10.342 14.5607 10.0607C14.842 9.77936 15 9.39782 15 9V1.5C15 1.10218 14.842 0.720644 14.5607 0.43934C14.2794 0.158035 13.8978 0 13.5 0Z" fill="#A5A6F6"/>
</svg>
