<svg width="20" height="15" viewBox="0 0 20 15" fill="none" xmlns="http://www.w3.org/2000/svg">
<path d="M18.2813 1.225C17.9329 0.875397 17.5189 0.598009 17.0631 0.408738C16.6073 0.219468 16.1186 0.12204 15.625 0.12204C15.1314 0.12204 14.6427 0.219468 14.1869 0.408738C13.7311 0.598009 13.3171 0.875397 12.9688 1.225L13.8563 2.1125C14.0889 1.87981 14.3652 1.69523 14.6692 1.56931C14.9732 1.44338 15.2991 1.37856 15.6281 1.37856C15.9572 1.37856 16.283 1.44338 16.5871 1.56931C16.8911 1.69523 17.1673 1.87981 17.4 2.1125C17.6327 2.34518 17.8173 2.62142 17.9432 2.92544C18.0691 3.22946 18.1339 3.5553 18.1339 3.88437C18.1339 4.21344 18.0691 4.53928 17.9432 4.8433C17.8173 5.14732 17.6327 5.42356 17.4 5.65625L12.4 10.6562C11.9309 11.1262 11.2943 11.3905 10.6303 11.3911C9.96634 11.3917 9.32931 11.1285 8.85938 10.6594C8.38944 10.1903 8.12511 9.5537 8.12452 8.88971C8.12394 8.22571 8.38715 7.58868 8.85625 7.11875L9.7375 6.23125L8.85625 5.34375L7.96875 6.23125C7.61915 6.57963 7.34176 6.99361 7.15249 7.44943C6.96322 7.90524 6.86579 8.39394 6.86579 8.8875C6.86579 9.38105 6.96322 9.86975 7.15249 10.3256C7.34176 10.7814 7.61915 11.1954 7.96875 11.5437C8.67593 12.2419 9.6313 12.6308 10.625 12.625C11.1204 12.627 11.6114 12.5309 12.0695 12.3421C12.5275 12.1533 12.9436 11.8756 13.2938 11.525L18.2938 6.525C18.9943 5.82021 19.3865 4.86616 19.3842 3.87241C19.3819 2.87866 18.9852 1.92647 18.2813 1.225Z" fill="#A5A6F6"/>
<path d="M2.61875 12.5125C2.38537 12.2802 2.20018 12.0041 2.07382 11.7C1.94745 11.3959 1.8824 11.0699 1.8824 10.7406C1.8824 10.4113 1.94745 10.0853 2.07382 9.78123C2.20018 9.47715 2.38537 9.20104 2.61875 8.96875L7.61875 3.96875C7.85105 3.73537 8.12716 3.55018 8.43123 3.42381C8.7353 3.29745 9.06134 3.2324 9.39062 3.2324C9.71991 3.2324 10.0459 3.29745 10.35 3.42381C10.6541 3.55018 10.9302 3.73537 11.1625 3.96875C11.3944 4.20287 11.577 4.48116 11.6993 4.78713C11.8217 5.0931 11.8815 5.42052 11.875 5.75C11.8769 6.0805 11.8133 6.4081 11.6877 6.71385C11.5622 7.01959 11.3773 7.29742 11.1437 7.53125L9.81875 8.875L10.7062 9.7625L12.0312 8.4375C12.7366 7.73219 13.1328 6.77558 13.1328 5.77812C13.1328 4.78066 12.7366 3.82406 12.0312 3.11875C11.3259 2.41344 10.3693 2.0172 9.37187 2.0172C8.37442 2.0172 7.41781 2.41344 6.7125 3.11875L1.7125 8.11875C1.36196 8.46725 1.08378 8.88161 0.893952 9.33801C0.704126 9.7944 0.606403 10.2838 0.606403 10.7781C0.606403 11.2724 0.704126 11.7618 0.893952 12.2182C1.08378 12.6746 1.36196 13.089 1.7125 13.4375C2.42426 14.1303 3.38181 14.5124 4.375 14.5C5.37694 14.501 6.33857 14.1055 7.05 13.4L6.1625 12.5125C5.9302 12.7459 5.65409 12.9311 5.35002 13.0574C5.04595 13.1838 4.71991 13.2488 4.39063 13.2488C4.06134 13.2488 3.7353 13.1838 3.43123 13.0574C3.12716 12.9311 2.85105 12.7459 2.61875 12.5125Z" fill="#A5A6F6"/>
</svg>
